<svg id="Layer_1" data-name="Layer 1" xmlns="http://www.w3.org/2000/svg" xmlns:xlink="http://www.w3.org/1999/xlink" viewBox="0 0 1144.56 331.95"><defs><style>.cls-1{fill:#343434;}.cls-2{fill:url(#New_Gradient_Swatch_1);}</style><linearGradient id="New_Gradient_Swatch_1" x1="128.6" y1="164.17" x2="350.52" y2="47.16" gradientUnits="userSpaceOnUse"><stop offset="0" stop-color="#ff7102"/><stop offset="1" stop-color="#ff5c01"/></linearGradient></defs><title>Webgility Logo</title><path class="cls-1" d="M408.13,207.53l-27.59-81.86H394.9l15.71,47.15,22.28-48.51,21.93,48.4,15.95-47h14.35l-27.81,82-24.42-53.25Z"/><path class="cls-1" d="M510.91,204.48V125.67h50.2v12.78H525v18.76h33.81V170H525V191.7H561.9v12.78Z"/><path class="cls-1" d="M591,204.48V125.67h28.5a22.18,22.18,0,0,1,15.6,5.77,18.27,18.27,0,0,1,6.44,14.35c0,7.58-3.73,13.46-10.06,15.84,10.06,1.8,15.83,9.49,15.83,19.56a22.16,22.16,0,0,1-6.9,16.73c-4.52,4.41-10.17,6.56-17.07,6.56Zm14.14-47h12.43c6,0,10.18-4,10.18-9.72,0-5.32-4.19-9.27-10.06-9.27H605.1Zm0,34.26h15.82c7.13,0,12.33-4.86,12.33-11.31s-5.2-11.08-12.44-11.08H605.1Z"/><path class="cls-1" d="M736.6,131.32v14.25a35.66,35.66,0,0,0-23.86-8.48,27.09,27.09,0,0,0-19.9,8c-5.31,5.31-7.91,12-7.91,20s2.6,14.7,7.91,20,12,7.92,19.9,7.92a26.69,26.69,0,0,0,18.88-7.13V172H709.69V159.25H745V191c-7.35,9.16-19.22,14.81-32.22,14.81-11.65,0-21.6-3.84-29.74-11.53s-12.09-17.53-12.09-29.17S675,143.76,683,136s18.09-11.65,29.74-11.65A41.26,41.26,0,0,1,736.6,131.32Z"/><path class="cls-1" d="M770.75,204.48V125.67h14.13v78.81Z"/><path class="cls-1" d="M810.67,204.48V125.67H824.8v66h31.32v12.78Z"/><path class="cls-1" d="M882.52,204.48V125.67h14.13v78.81Z"/><path class="cls-1" d="M944.25,204.48v-66H922.89V125.67h56.87v12.78H958.39v66Z"/><path class="cls-1" d="M1027.13,204.48V174l-28.38-48.28H1014l20.24,34.71,20.12-34.71h15.15L1041.15,174v30.53Z"/><path class="cls-2" d="M153.82,83.35l19.06,33L192,149.43l-19.08,33v0l-38.19-66.15-19.06-33H77.47l19,33,57.28,99.2,19.08,33,19.08-33v0l19.09-33.05v0l19.08,33.05,19.08-33.05,38.2-66.15,19.05-33Zm76.33,66.1v0l-19.08-33.05,0,0h38.22Z"/></svg>